<svg width="565" height="266" viewBox="0 0 565 266" fill="none" xmlns="http://www.w3.org/2000/svg">
<rect width="564.007" height="265.023" rx="132.511" fill="#FEFAF7"/>
<path d="M120 104.219H128.333V122.689C128.333 125.257 128.78 127.288 129.672 128.782C130.565 130.257 131.858 131.305 133.552 131.924C135.264 132.543 137.341 132.853 139.782 132.853C141.075 132.853 142.386 132.807 143.716 132.716C145.064 132.607 146.403 132.461 147.733 132.279C149.062 132.079 150.347 131.851 151.585 131.596C152.842 131.323 154.008 131.022 155.082 130.694V137.88C154.026 138.226 152.906 138.536 151.722 138.809C150.556 139.064 149.336 139.292 148.061 139.492C146.785 139.674 145.456 139.82 144.071 139.929C142.687 140.039 141.257 140.093 139.782 140.093C135.702 140.093 132.177 139.511 129.208 138.345C126.257 137.161 123.98 135.294 122.377 132.744C120.792 130.193 120 126.842 120 122.689V104.219ZM153.826 104.219H162.186V160.176H153.826V104.219Z" fill="#1F1F21"/>
<path d="M192.59 161.023C188.455 161.023 184.894 160.139 181.907 158.372C178.938 156.587 176.642 154.083 175.021 150.859C173.418 147.616 172.617 143.818 172.617 139.465C172.617 135.166 173.418 131.377 175.021 128.099C176.642 124.82 178.901 122.261 181.797 120.421C184.712 118.581 188.118 117.661 192.016 117.661C194.384 117.661 196.679 118.053 198.901 118.836C201.124 119.62 203.118 120.849 204.885 122.525C206.652 124.201 208.045 126.377 209.066 129.055C210.086 131.714 210.596 134.948 210.596 138.755V141.651H177.234V135.531H202.59C202.59 133.381 202.153 131.478 201.279 129.82C200.404 128.144 199.175 126.824 197.59 125.858C196.023 124.893 194.184 124.41 192.071 124.41C189.776 124.41 187.772 124.975 186.06 126.104C184.366 127.215 183.054 128.673 182.125 130.476C181.214 132.261 180.759 134.201 180.759 136.296V141.077C180.759 143.882 181.251 146.268 182.235 148.236C183.236 150.203 184.63 151.706 186.415 152.744C188.2 153.764 190.286 154.274 192.672 154.274C194.22 154.274 195.632 154.055 196.907 153.618C198.182 153.163 199.284 152.489 200.213 151.596C201.142 150.704 201.852 149.602 202.344 148.29L210.076 149.684C209.457 151.961 208.346 153.955 206.743 155.667C205.158 157.361 203.164 158.682 200.759 159.629C198.373 160.558 195.65 161.023 192.59 161.023Z" fill="#1F1F21"/>
<path d="M237.338 161.023C233.276 161.023 229.778 160.103 226.846 158.263C223.931 156.405 221.691 153.846 220.124 150.585C218.558 147.325 217.775 143.591 217.775 139.383C217.775 135.121 218.576 131.359 220.179 128.099C221.782 124.82 224.041 122.261 226.955 120.421C229.87 118.581 233.303 117.661 237.256 117.661C240.443 117.661 243.285 118.253 245.781 119.437C248.276 120.603 250.289 122.243 251.819 124.355C253.367 126.468 254.287 128.937 254.578 131.76H246.628C246.19 129.793 245.189 128.099 243.622 126.678C242.074 125.257 239.997 124.547 237.392 124.547C235.116 124.547 233.121 125.148 231.409 126.35C229.715 127.534 228.394 129.228 227.447 131.432C226.5 133.618 226.026 136.204 226.026 139.192C226.026 142.252 226.491 144.893 227.42 147.115C228.349 149.338 229.66 151.059 231.354 152.279C233.066 153.5 235.079 154.11 237.392 154.11C238.941 154.11 240.343 153.828 241.6 153.263C242.875 152.68 243.941 151.851 244.797 150.777C245.671 149.702 246.281 148.409 246.628 146.897H254.578C254.287 149.611 253.404 152.034 251.928 154.165C250.453 156.296 248.476 157.972 245.999 159.192C243.54 160.412 240.653 161.023 237.338 161.023Z" fill="#1F1F21"/>
<path d="M260.139 125.257V118.208H295.549V125.257H281.86V160.176H273.882V125.257H260.139Z" fill="#1F1F21"/>
<path d="M332.633 135.667V142.744H309.9V135.667H332.633ZM312.195 118.208V160.176H304.19V118.208H312.195ZM338.343 118.208V160.176H330.365V118.208H338.343Z" fill="#1F1F21"/>
<path d="M355.42 132.634H367.606C372.743 132.634 376.695 133.909 379.464 136.459C382.233 139.01 383.617 142.297 383.617 146.323C383.617 148.946 382.998 151.305 381.759 153.4C380.521 155.494 378.708 157.152 376.322 158.372C373.936 159.575 371.031 160.176 367.606 160.176H349.272V118.208H357.278V153.126H367.606C369.956 153.126 371.887 152.516 373.399 151.296C374.91 150.057 375.666 148.482 375.666 146.569C375.666 144.547 374.91 142.899 373.399 141.624C371.887 140.33 369.956 139.684 367.606 139.684H355.42V132.634ZM389.574 160.176V118.208H397.743V160.176H389.574Z" fill="#1F1F21"/>
<path d="M416.712 148.727L435.21 118.208H444.008V160.176H436.002V129.629L417.586 160.176H408.706V118.208H416.712V148.727ZM431.712 104H438.434C438.434 107.078 437.341 109.583 435.155 111.514C432.987 113.426 430.055 114.383 426.357 114.383C422.677 114.383 419.754 113.426 417.586 111.514C415.419 109.583 414.335 107.078 414.335 104H421.029C421.029 105.366 421.43 106.577 422.231 107.634C423.033 108.672 424.408 109.191 426.357 109.191C428.27 109.191 429.636 108.672 430.455 107.634C431.293 106.596 431.712 105.384 431.712 104Z" fill="#1F1F21"/>
</svg>
