<svg width="745" height="266" viewBox="0 0 745 266" fill="none" xmlns="http://www.w3.org/2000/svg">
<rect width="744.632" height="265.105" rx="132.552" fill="#F5BF41"/>
<path d="M120 160.176L120 104.219H128.443V128.536H156.339V104.219H164.809V160.176H156.339V135.776H128.443V160.176H120Z" fill="#1F1F21"/>
<path d="M188.662 161.105C186.003 161.105 183.598 160.613 181.449 159.629C179.3 158.627 177.596 157.179 176.34 155.285C175.101 153.391 174.482 151.068 174.482 148.318C174.482 145.95 174.937 144.001 175.848 142.471C176.759 140.94 177.988 139.729 179.536 138.837C181.085 137.944 182.815 137.27 184.728 136.815C186.64 136.359 188.589 136.013 190.575 135.776C193.089 135.485 195.129 135.248 196.695 135.066C198.262 134.866 199.4 134.547 200.11 134.11C200.821 133.673 201.176 132.962 201.176 131.979V131.787C201.176 129.401 200.502 127.552 199.154 126.241C197.824 124.929 195.839 124.274 193.198 124.274C190.447 124.274 188.28 124.884 186.695 126.104C185.128 127.306 184.045 128.645 183.444 130.121L175.766 128.372C176.677 125.822 178.006 123.764 179.755 122.197C181.522 120.612 183.553 119.465 185.848 118.754C188.143 118.026 190.557 117.661 193.089 117.661C194.764 117.661 196.54 117.862 198.416 118.263C200.311 118.645 202.078 119.355 203.717 120.394C205.375 121.432 206.732 122.916 207.788 124.847C208.845 126.76 209.373 129.246 209.373 132.306V160.176H201.395V154.438H201.067C200.539 155.494 199.746 156.533 198.69 157.553C197.633 158.573 196.276 159.42 194.619 160.094C192.961 160.768 190.976 161.105 188.662 161.105ZM190.438 154.547C192.697 154.547 194.628 154.101 196.231 153.208C197.852 152.316 199.081 151.15 199.919 149.711C200.775 148.254 201.203 146.696 201.203 145.039V139.629C200.912 139.92 200.347 140.194 199.509 140.449C198.69 140.685 197.752 140.895 196.695 141.077C195.639 141.241 194.609 141.396 193.608 141.542C192.606 141.669 191.768 141.778 191.094 141.869C189.509 142.07 188.061 142.407 186.75 142.88C185.456 143.354 184.418 144.037 183.635 144.93C182.87 145.804 182.487 146.97 182.487 148.427C182.487 150.449 183.234 151.979 184.728 153.017C186.221 154.037 188.125 154.547 190.438 154.547Z" fill="#1F1F21"/>
<path d="M237.932 161.023C233.87 161.023 230.373 160.103 227.44 158.263C224.526 156.405 222.285 153.846 220.719 150.585C219.152 147.325 218.369 143.591 218.369 139.383C218.369 135.121 219.17 131.359 220.773 128.099C222.376 124.82 224.635 122.261 227.549 120.421C230.464 118.581 233.897 117.661 237.85 117.661C241.038 117.661 243.879 118.253 246.375 119.437C248.87 120.603 250.883 122.243 252.413 124.355C253.961 126.468 254.881 128.937 255.173 131.76H247.222C246.785 129.793 245.783 128.099 244.216 126.678C242.668 125.257 240.591 124.547 237.987 124.547C235.71 124.547 233.715 125.148 232.003 126.35C230.309 127.534 228.988 129.228 228.041 131.432C227.094 133.618 226.62 136.204 226.62 139.192C226.62 142.252 227.085 144.893 228.014 147.115C228.943 149.338 230.254 151.059 231.948 152.279C233.661 153.5 235.673 154.11 237.987 154.11C239.535 154.11 240.938 153.828 242.194 153.263C243.469 152.68 244.535 151.851 245.391 150.777C246.266 149.702 246.876 148.409 247.222 146.897H255.173C254.881 149.611 253.998 152.034 252.522 154.165C251.047 156.296 249.071 157.972 246.593 159.192C244.134 160.412 241.247 161.023 237.932 161.023Z" fill="#1F1F21"/>
<path d="M260.733 125.257V118.208L296.143 118.208V125.257L282.455 125.257V160.176H274.476V125.257H260.733Z" fill="#1F1F21"/>
<path d="M320.508 161.023C316.574 161.023 313.14 160.121 310.208 158.318C307.275 156.514 304.998 153.992 303.377 150.749C301.756 147.507 300.945 143.718 300.945 139.383C300.945 135.03 301.756 131.223 303.377 127.962C304.998 124.702 307.275 122.17 310.208 120.366C313.14 118.563 316.574 117.661 320.508 117.661C324.443 117.661 327.876 118.563 330.809 120.366C333.742 122.17 336.019 124.702 337.64 127.962C339.261 131.223 340.072 135.03 340.072 139.383C340.072 143.718 339.261 147.507 337.64 150.749C336.019 153.992 333.742 156.514 330.809 158.318C327.876 160.121 324.443 161.023 320.508 161.023ZM320.536 154.165C323.086 154.165 325.199 153.491 326.875 152.143C328.55 150.795 329.789 149.001 330.591 146.76C331.41 144.52 331.82 142.052 331.82 139.356C331.82 136.678 331.41 134.219 330.591 131.979C329.789 129.72 328.55 127.907 326.875 126.541C325.199 125.175 323.086 124.492 320.536 124.492C317.967 124.492 315.836 125.175 314.142 126.541C312.466 127.907 311.219 129.72 310.399 131.979C309.598 134.219 309.197 136.678 309.197 139.356C309.197 142.052 309.598 144.52 310.399 146.76C311.219 149.001 312.466 150.795 314.142 152.143C315.836 153.491 317.967 154.165 320.536 154.165Z" fill="#1F1F21"/>
<path d="M357.196 148.727L375.694 118.208H384.492V160.176H376.486V129.629L358.07 160.176H349.191V118.208H357.196V148.727ZM372.196 104H378.918C378.918 107.078 377.825 109.583 375.639 111.514C373.471 113.426 370.539 114.383 366.841 114.383C363.162 114.383 360.238 113.426 358.07 111.514C355.903 109.583 354.819 107.078 354.819 104H361.513C361.513 105.366 361.914 106.577 362.715 107.634C363.517 108.672 364.892 109.191 366.841 109.191C368.754 109.191 370.12 108.672 370.939 107.634C371.777 106.596 372.196 105.384 372.196 104Z" fill="#1F1F21"/>
<path d="M429.164 118.208V160.176H421.186V118.208H429.164ZM425.694 137.689V144.738C424.438 145.248 423.108 145.704 421.705 146.104C420.303 146.487 418.827 146.788 417.279 147.006C415.731 147.225 414.119 147.334 412.443 147.334C407.251 147.334 403.126 146.068 400.066 143.536C397.005 140.986 395.475 137.088 395.475 131.842V118.126H403.426V131.842C403.426 133.827 403.791 135.439 404.519 136.678C405.248 137.917 406.286 138.827 407.634 139.41C408.982 139.993 410.585 140.285 412.443 140.285C414.902 140.285 417.17 140.057 419.246 139.602C421.341 139.128 423.49 138.49 425.694 137.689Z" fill="#1F1F21"/>
<path d="M448.038 148.727L466.535 118.208L475.333 118.208V160.176H467.327V129.629L448.912 160.176H440.032V118.208H448.038V148.727Z" fill="#1F1F21"/>
<path d="M486.317 160.176V118.208H503.721C508.457 118.208 512.21 119.219 514.978 121.241C517.747 123.244 519.132 125.968 519.132 129.41C519.132 131.869 518.348 133.818 516.782 135.257C515.215 136.696 513.139 137.662 510.552 138.154C512.428 138.372 514.15 138.937 515.716 139.848C517.283 140.74 518.54 141.942 519.487 143.454C520.452 144.966 520.935 146.769 520.935 148.864C520.935 151.086 520.361 153.054 519.214 154.766C518.066 156.46 516.399 157.79 514.213 158.755C512.046 159.702 509.432 160.176 506.372 160.176H486.317ZM493.995 153.345H506.372C508.394 153.345 509.978 152.862 511.126 151.897C512.273 150.931 512.847 149.62 512.847 147.962C512.847 146.013 512.273 144.483 511.126 143.372C509.978 142.243 508.394 141.678 506.372 141.678H493.995V153.345ZM493.995 135.694H503.803C505.333 135.694 506.645 135.476 507.738 135.039C508.849 134.602 509.696 133.982 510.279 133.181C510.88 132.361 511.181 131.396 511.181 130.285C511.181 128.663 510.516 127.397 509.186 126.487C507.856 125.576 506.035 125.121 503.721 125.121H493.995V135.694Z" fill="#1F1F21"/>
<path d="M536.044 132.634H548.23C553.367 132.634 557.32 133.909 560.088 136.459C562.857 139.01 564.241 142.297 564.241 146.323C564.241 148.946 563.622 151.305 562.383 153.4C561.145 155.494 559.332 157.152 556.946 158.372C554.56 159.575 551.655 160.176 548.23 160.176H529.897V118.208H537.902V153.126H548.23C550.58 153.126 552.511 152.516 554.023 151.296C555.535 150.057 556.29 148.482 556.29 146.569C556.29 144.547 555.535 142.899 554.023 141.624C552.511 140.33 550.58 139.684 548.23 139.684H536.044V132.634ZM570.198 160.176V118.208H578.367V160.176H570.198Z" fill="#1F1F21"/>
<path d="M597.336 148.727L615.834 118.208H624.632V160.176H616.626V129.629L598.211 160.176H589.331V118.208L597.336 118.208V148.727ZM612.336 104H619.058C619.058 107.078 617.965 109.583 615.779 111.514C613.612 113.426 610.679 114.383 606.981 114.383C603.302 114.383 600.378 113.426 598.211 111.514C596.043 109.583 594.959 107.078 594.959 104L601.653 104C601.653 105.366 602.054 106.577 602.855 107.634C603.657 108.672 605.032 109.191 606.981 109.191C608.894 109.191 610.26 108.672 611.08 107.634C611.917 106.596 612.336 105.384 612.336 104Z" fill="#1F1F21"/>
</svg>
