<svg width="633" height="281" viewBox="0 0 633 281" fill="none" xmlns="http://www.w3.org/2000/svg">
<rect width="632.151" height="280.46" rx="140.23" fill="#D4E86D"/>
<path d="M168.279 122.962H159.755C159.427 121.141 158.817 119.538 157.924 118.153C157.032 116.769 155.939 115.594 154.645 114.629C153.352 113.663 151.904 112.935 150.301 112.443C148.716 111.951 147.031 111.705 145.246 111.705C142.022 111.705 139.135 112.516 136.585 114.137C134.053 115.758 132.049 118.135 130.574 121.268C129.117 124.401 128.388 128.226 128.388 132.744C128.388 137.297 129.117 141.141 130.574 144.274C132.049 147.407 134.062 149.775 136.612 151.378C139.162 152.981 142.031 153.782 145.219 153.782C146.986 153.782 148.662 153.545 150.246 153.072C151.849 152.58 153.297 151.86 154.591 150.913C155.884 149.966 156.977 148.809 157.869 147.443C158.78 146.059 159.409 144.474 159.755 142.689L168.279 142.716C167.824 145.467 166.941 147.999 165.629 150.312C164.336 152.607 162.669 154.593 160.629 156.269C158.607 157.926 156.294 159.21 153.689 160.121C151.084 161.032 148.243 161.487 145.164 161.487C140.319 161.487 136.002 160.34 132.213 158.045C128.425 155.731 125.437 152.425 123.251 148.126C121.084 143.828 120 138.7 120 132.744C120 126.769 121.093 121.641 123.279 117.361C125.465 113.062 128.452 109.765 132.241 107.47C136.029 105.157 140.337 104 145.164 104C148.133 104 150.902 104.428 153.47 105.284C156.057 106.122 158.379 107.361 160.438 109C162.496 110.621 164.199 112.607 165.547 114.956C166.895 117.288 167.806 119.957 168.279 122.962Z" fill="#1F1F21"/>
<path d="M177.726 160.722V118.754H185.896V136.35H189.83L203.683 118.754H213.792L197.535 139.164L213.984 160.722H203.847L191.196 143.946H185.896V160.722H177.726Z" fill="#1F1F21"/>
<path d="M220.329 176.46V118.754H228.308V125.558H228.991C229.464 124.683 230.147 123.672 231.04 122.525C231.932 121.377 233.171 120.375 234.756 119.519C236.34 118.645 238.435 118.208 241.04 118.208C244.428 118.208 247.452 119.064 250.111 120.776C252.771 122.488 254.856 124.957 256.368 128.181C257.898 131.405 258.663 135.285 258.663 139.82C258.663 144.356 257.907 148.245 256.395 151.487C254.884 154.711 252.807 157.198 250.166 158.946C247.525 160.677 244.51 161.542 241.122 161.542C238.572 161.542 236.486 161.114 234.865 160.258C233.262 159.402 232.005 158.4 231.095 157.252C230.184 156.105 229.482 155.085 228.991 154.192H228.499V176.46H220.329ZM228.335 139.738C228.335 142.689 228.763 145.276 229.619 147.498C230.475 149.72 231.714 151.46 233.335 152.717C234.956 153.955 236.942 154.575 239.291 154.575C241.732 154.575 243.772 153.928 245.412 152.635C247.051 151.323 248.29 149.547 249.128 147.307C249.984 145.066 250.412 142.543 250.412 139.738C250.412 136.97 249.993 134.483 249.155 132.279C248.335 130.075 247.097 128.336 245.439 127.06C243.8 125.785 241.75 125.148 239.291 125.148C236.923 125.148 234.92 125.758 233.28 126.978C231.659 128.199 230.43 129.902 229.592 132.088C228.754 134.274 228.335 136.824 228.335 139.738Z" fill="#1F1F21"/>
<path d="M285.494 161.569C281.56 161.569 278.126 160.668 275.194 158.864C272.261 157.061 269.984 154.538 268.363 151.296C266.742 148.053 265.931 144.265 265.931 139.929C265.931 135.576 266.742 131.769 268.363 128.509C269.984 125.248 272.261 122.716 275.194 120.913C278.126 119.11 281.56 118.208 285.494 118.208C289.429 118.208 292.862 119.11 295.795 120.913C298.728 122.716 301.004 125.248 302.626 128.509C304.247 131.769 305.057 135.576 305.057 139.929C305.057 144.265 304.247 148.053 302.626 151.296C301.004 154.538 298.728 157.061 295.795 158.864C292.862 160.668 289.429 161.569 285.494 161.569ZM285.522 154.711C288.072 154.711 290.185 154.037 291.86 152.689C293.536 151.341 294.775 149.547 295.576 147.307C296.396 145.066 296.806 142.598 296.806 139.902C296.806 137.225 296.396 134.765 295.576 132.525C294.775 130.266 293.536 128.454 291.86 127.088C290.185 125.722 288.072 125.039 285.522 125.039C282.953 125.039 280.822 125.722 279.128 127.088C277.452 128.454 276.204 130.266 275.385 132.525C274.583 134.765 274.183 137.225 274.183 139.902C274.183 142.598 274.583 145.066 275.385 147.307C276.204 149.547 277.452 151.341 279.128 152.689C280.822 154.037 282.953 154.711 285.522 154.711Z" fill="#1F1F21"/>
<path d="M337.729 150.613L351.281 118.754H358.33L340.761 160.722H334.696L317.482 118.754H324.45L337.729 150.613ZM322.182 118.754V160.722H314.176V118.754H322.182ZM353.494 160.722V118.754H361.445V160.722H353.494Z" fill="#1F1F21"/>
<path d="M400.776 136.214V143.29H378.043V136.214H400.776ZM380.339 118.754V160.722H372.333V118.754H380.339ZM406.486 118.754V160.722H398.508V118.754H406.486Z" fill="#1F1F21"/>
<path d="M423.563 133.181H435.749C440.886 133.181 444.839 134.456 447.607 137.006C450.376 139.556 451.76 142.844 451.76 146.869C451.76 149.492 451.141 151.851 449.902 153.946C448.664 156.041 446.851 157.698 444.465 158.919C442.079 160.121 439.174 160.722 435.749 160.722H417.416V118.754H425.421V153.673H435.749C438.099 153.673 440.03 153.063 441.542 151.842C443.053 150.604 443.809 149.028 443.809 147.115C443.809 145.094 443.053 143.445 441.542 142.17C440.03 140.877 438.099 140.23 435.749 140.23H423.563V133.181ZM457.717 160.722V118.754H465.886V160.722H457.717Z" fill="#1F1F21"/>
<path d="M484.855 149.274L503.353 118.754H512.151V160.722H504.145V130.175L485.729 160.722H476.849V118.754H484.855V149.274ZM499.855 104.546H506.577C506.577 107.625 505.484 110.129 503.298 112.06C501.13 113.973 498.198 114.929 494.5 114.929C490.821 114.929 487.897 113.973 485.729 112.06C483.562 110.129 482.478 107.625 482.478 104.546H489.172C489.172 105.913 489.573 107.124 490.374 108.18C491.176 109.219 492.551 109.738 494.5 109.738C496.413 109.738 497.779 109.219 498.598 108.18C499.436 107.142 499.855 105.931 499.855 104.546Z" fill="#1F1F21"/>
</svg>
