<svg width="930" height="266" viewBox="0 0 930 266" fill="none" xmlns="http://www.w3.org/2000/svg">
<rect width="929.696" height="265.651" rx="132.826" fill="#FEFAF7"/>
<path d="M168.279 122.962H159.755C159.427 121.141 158.817 119.538 157.924 118.153C157.032 116.769 155.939 115.594 154.645 114.629C153.352 113.663 151.904 112.935 150.301 112.443C148.716 111.951 147.031 111.705 145.246 111.705C142.022 111.705 139.135 112.516 136.585 114.137C134.053 115.758 132.049 118.135 130.574 121.268C129.117 124.401 128.388 128.226 128.388 132.744C128.388 137.297 129.117 141.141 130.574 144.274C132.049 147.407 134.062 149.775 136.612 151.378C139.162 152.981 142.031 153.782 145.219 153.782C146.986 153.782 148.662 153.545 150.246 153.072C151.849 152.58 153.297 151.86 154.591 150.913C155.884 149.966 156.977 148.809 157.869 147.443C158.78 146.059 159.409 144.474 159.755 142.689L168.279 142.716C167.824 145.467 166.941 147.999 165.629 150.312C164.336 152.607 162.669 154.593 160.629 156.269C158.607 157.926 156.294 159.21 153.689 160.121C151.084 161.032 148.243 161.487 145.164 161.487C140.319 161.487 136.002 160.34 132.213 158.045C128.425 155.731 125.437 152.425 123.251 148.126C121.084 143.828 120 138.7 120 132.744C120 126.769 121.093 121.641 123.279 117.361C125.465 113.062 128.452 109.765 132.241 107.47C136.029 105.157 140.337 104 145.164 104C148.133 104 150.902 104.428 153.47 105.284C156.057 106.122 158.379 107.361 160.438 109C162.496 110.621 164.199 112.607 165.547 114.956C166.895 117.288 167.806 119.957 168.279 122.962Z" fill="#1F1F21"/>
<path d="M189.94 161.651C187.28 161.651 184.876 161.159 182.726 160.176C180.577 159.174 178.874 157.726 177.617 155.831C176.378 153.937 175.759 151.615 175.759 148.864C175.759 146.496 176.214 144.547 177.125 143.017C178.036 141.487 179.265 140.276 180.814 139.383C182.362 138.49 184.092 137.817 186.005 137.361C187.918 136.906 189.867 136.56 191.852 136.323C194.366 136.031 196.406 135.795 197.972 135.612C199.539 135.412 200.677 135.093 201.388 134.656C202.098 134.219 202.453 133.509 202.453 132.525V132.334C202.453 129.948 201.779 128.099 200.432 126.787C199.102 125.476 197.116 124.82 194.475 124.82C191.725 124.82 189.557 125.43 187.972 126.651C186.406 127.853 185.322 129.192 184.721 130.667L177.043 128.918C177.954 126.368 179.284 124.31 181.032 122.743C182.799 121.159 184.83 120.011 187.125 119.301C189.42 118.572 191.834 118.208 194.366 118.208C196.042 118.208 197.818 118.408 199.694 118.809C201.588 119.191 203.355 119.902 204.994 120.94C206.652 121.978 208.009 123.463 209.066 125.394C210.122 127.306 210.65 129.793 210.65 132.853V160.722H202.672V154.984H202.344C201.816 156.041 201.023 157.079 199.967 158.099C198.911 159.119 197.554 159.966 195.896 160.64C194.238 161.314 192.253 161.651 189.94 161.651ZM191.716 155.094C193.974 155.094 195.905 154.647 197.508 153.755C199.129 152.862 200.359 151.697 201.197 150.258C202.053 148.8 202.481 147.243 202.481 145.585V140.175C202.189 140.467 201.625 140.74 200.787 140.995C199.967 141.232 199.029 141.441 197.972 141.624C196.916 141.787 195.887 141.942 194.885 142.088C193.883 142.215 193.045 142.325 192.371 142.416C190.787 142.616 189.338 142.953 188.027 143.427C186.734 143.9 185.695 144.583 184.912 145.476C184.147 146.35 183.765 147.516 183.765 148.973C183.765 150.995 184.511 152.525 186.005 153.564C187.499 154.584 189.402 155.094 191.716 155.094Z" fill="#1F1F21"/>
<path d="M245.084 150.613L258.636 118.754H265.685L248.117 160.722H242.051L224.838 118.754H231.805L245.084 150.613ZM229.537 118.754V160.722H221.532V118.754H229.537ZM260.849 160.722V118.754H268.8V160.722H260.849Z" fill="#1F1F21"/>
<path d="M297.366 161.569C293.432 161.569 289.998 160.668 287.065 158.864C284.133 157.061 281.856 154.538 280.235 151.296C278.613 148.053 277.803 144.265 277.803 139.929C277.803 135.576 278.613 131.769 280.235 128.509C281.856 125.248 284.133 122.716 287.065 120.913C289.998 119.11 293.432 118.208 297.366 118.208C301.3 118.208 304.734 119.11 307.667 120.913C310.599 122.716 312.876 125.248 314.497 128.509C316.119 131.769 316.929 135.576 316.929 139.929C316.929 144.265 316.119 148.053 314.497 151.296C312.876 154.538 310.599 157.061 307.667 158.864C304.734 160.668 301.3 161.569 297.366 161.569ZM297.393 154.711C299.943 154.711 302.056 154.037 303.732 152.689C305.408 151.341 306.647 149.547 307.448 147.307C308.268 145.066 308.678 142.598 308.678 139.902C308.678 137.225 308.268 134.765 307.448 132.525C306.647 130.266 305.408 128.454 303.732 127.088C302.056 125.722 299.943 125.039 297.393 125.039C294.825 125.039 292.694 125.722 291 127.088C289.324 128.454 288.076 130.266 287.257 132.525C286.455 134.765 286.054 137.225 286.054 139.902C286.054 142.598 286.455 145.066 287.257 147.307C288.076 149.547 289.324 151.341 291 152.689C292.694 154.037 294.825 154.711 297.393 154.711Z" fill="#1F1F21"/>
<path d="M343.726 161.569C339.664 161.569 336.167 160.649 333.234 158.81C330.32 156.952 328.079 154.392 326.513 151.132C324.946 147.871 324.163 144.137 324.163 139.929C324.163 135.667 324.964 131.906 326.567 128.645C328.17 125.366 330.429 122.807 333.343 120.967C336.258 119.128 339.691 118.208 343.644 118.208C346.832 118.208 349.673 118.8 352.169 119.984C354.664 121.15 356.677 122.789 358.207 124.902C359.755 127.015 360.675 129.483 360.967 132.306H353.016C352.579 130.339 351.577 128.645 350.01 127.224C348.462 125.804 346.385 125.093 343.781 125.093C341.504 125.093 339.509 125.694 337.797 126.897C336.103 128.081 334.782 129.775 333.835 131.979C332.888 134.164 332.414 136.751 332.414 139.738C332.414 142.798 332.879 145.44 333.808 147.662C334.737 149.884 336.048 151.605 337.742 152.826C339.454 154.046 341.467 154.656 343.781 154.656C345.329 154.656 346.731 154.374 347.988 153.809C349.263 153.227 350.329 152.398 351.185 151.323C352.059 150.248 352.67 148.955 353.016 147.443H360.967C360.675 150.157 359.792 152.58 358.316 154.711C356.841 156.842 354.865 158.518 352.387 159.739C349.928 160.959 347.041 161.569 343.726 161.569Z" fill="#1F1F21"/>
<path d="M366.527 125.804V118.754H401.937V125.804H388.248V160.722H380.27V125.804H366.527Z" fill="#1F1F21"/>
<path d="M426.302 161.569C422.368 161.569 418.934 160.668 416.002 158.864C413.069 157.061 410.792 154.538 409.171 151.296C407.55 148.053 406.739 144.265 406.739 139.929C406.739 135.576 407.55 131.769 409.171 128.509C410.792 125.248 413.069 122.716 416.002 120.913C418.934 119.11 422.368 118.208 426.302 118.208C430.237 118.208 433.67 119.11 436.603 120.913C439.536 122.716 441.813 125.248 443.434 128.509C445.055 131.769 445.865 135.576 445.865 139.929C445.865 144.265 445.055 148.053 443.434 151.296C441.813 154.538 439.536 157.061 436.603 158.864C433.67 160.668 430.237 161.569 426.302 161.569ZM426.33 154.711C428.88 154.711 430.993 154.037 432.668 152.689C434.344 151.341 435.583 149.547 436.384 147.307C437.204 145.066 437.614 142.598 437.614 139.902C437.614 137.225 437.204 134.765 436.384 132.525C435.583 130.266 434.344 128.454 432.668 127.088C430.993 125.722 428.88 125.039 426.33 125.039C423.761 125.039 421.63 125.722 419.936 127.088C418.26 128.454 417.013 130.266 416.193 132.525C415.391 134.765 414.991 137.225 414.991 139.902C414.991 142.598 415.391 145.066 416.193 147.307C417.013 149.547 418.26 151.341 419.936 152.689C421.63 154.037 423.761 154.711 426.33 154.711Z" fill="#1F1F21"/>
<path d="M480.012 160.722V125.722H469.957C467.571 125.722 465.713 126.277 464.383 127.388C463.054 128.499 462.389 129.957 462.389 131.76C462.389 133.545 462.999 134.984 464.22 136.077C465.458 137.152 467.189 137.689 469.411 137.689H482.389V144.301H469.411C466.314 144.301 463.637 143.791 461.378 142.771C459.137 141.733 457.407 140.266 456.187 138.372C454.984 136.478 454.383 134.237 454.383 131.651C454.383 129.009 455.003 126.733 456.241 124.82C457.498 122.889 459.292 121.396 461.624 120.339C463.974 119.283 466.751 118.754 469.957 118.754H487.69V160.722H480.012ZM452.471 160.722L464.301 139.52H472.662L460.831 160.722H452.471Z" fill="#1F1F21"/>
<path d="M493.359 125.804V118.754H528.77V125.804H515.081V160.722H507.103V125.804H493.359Z" fill="#1F1F21"/>
<path d="M553.545 161.569C549.41 161.569 545.849 160.686 542.861 158.919C539.892 157.134 537.597 154.629 535.976 151.405C534.373 148.163 533.572 144.365 533.572 140.011C533.572 135.713 534.373 131.924 535.976 128.645C537.597 125.366 539.856 122.807 542.752 120.967C545.667 119.128 549.073 118.208 552.971 118.208C555.339 118.208 557.634 118.599 559.856 119.383C562.078 120.166 564.073 121.396 565.84 123.071C567.607 124.747 569 126.924 570.02 129.601C571.04 132.261 571.55 135.494 571.55 139.301V142.197H538.189V136.077H563.545C563.545 133.928 563.108 132.024 562.233 130.367C561.359 128.691 560.129 127.37 558.545 126.405C556.978 125.439 555.138 124.957 553.025 124.957C550.73 124.957 548.727 125.521 547.014 126.651C545.32 127.762 544.009 129.219 543.08 131.022C542.169 132.807 541.714 134.747 541.714 136.842V141.624C541.714 144.429 542.206 146.815 543.189 148.782C544.191 150.749 545.585 152.252 547.37 153.29C549.155 154.31 551.24 154.82 553.627 154.82C555.175 154.82 556.587 154.602 557.862 154.165C559.137 153.709 560.239 153.035 561.168 152.143C562.097 151.25 562.807 150.148 563.299 148.837L571.031 150.23C570.412 152.507 569.301 154.502 567.698 156.214C566.113 157.908 564.119 159.229 561.714 160.176C559.328 161.105 556.605 161.569 553.545 161.569Z" fill="#1F1F21"/>
<path d="M577.309 160.722L577.281 153.646H578.784C579.95 153.646 580.924 153.4 581.708 152.908C582.509 152.398 583.165 151.542 583.675 150.339C584.185 149.137 584.576 147.48 584.85 145.367C585.123 143.236 585.323 140.558 585.451 137.334L586.189 118.754H615.479V160.722H607.473V125.804H593.757L593.101 140.066C592.937 143.527 592.582 146.551 592.036 149.137C591.507 151.724 590.733 153.882 589.713 155.613C588.693 157.325 587.382 158.609 585.779 159.465C584.176 160.303 582.227 160.722 579.932 160.722H577.309Z" fill="#1F1F21"/>
<path d="M632.521 133.181H644.707C649.844 133.181 653.797 134.456 656.565 137.006C659.334 139.556 660.718 142.844 660.718 146.869C660.718 149.492 660.099 151.851 658.86 153.946C657.622 156.041 655.809 157.698 653.423 158.919C651.037 160.121 648.132 160.722 644.707 160.722H626.374V118.754H634.379V153.673H644.707C647.057 153.673 648.988 153.063 650.5 151.842C652.011 150.604 652.767 149.028 652.767 147.115C652.767 145.094 652.011 143.445 650.5 142.17C648.988 140.877 647.057 140.23 644.707 140.23H632.521V133.181Z" fill="#1F1F21"/>
<path d="M698.321 136.214V143.29H675.589V136.214H698.321ZM677.884 118.754V160.722H669.878V118.754H677.884ZM704.032 118.754V160.722H696.054V118.754H704.032Z" fill="#1F1F21"/>
<path d="M721.109 133.181H733.295C738.431 133.181 742.384 134.456 745.153 137.006C747.921 139.556 749.306 142.844 749.306 146.869C749.306 149.492 748.686 151.851 747.448 153.946C746.209 156.041 744.397 157.698 742.01 158.919C739.624 160.121 736.719 160.722 733.295 160.722H714.961V118.754H722.967V153.673H733.295C735.644 153.673 737.575 153.063 739.087 151.842C740.599 150.604 741.355 149.028 741.355 147.115C741.355 145.094 740.599 143.445 739.087 142.17C737.575 140.877 735.644 140.23 733.295 140.23H721.109V133.181ZM755.262 160.722V118.754H763.432V160.722H755.262Z" fill="#1F1F21"/>
<path d="M782.4 149.274L800.898 118.754H809.696V160.722H801.69V130.175L783.275 160.722H774.395V118.754H782.4V149.274ZM797.401 104.546H804.122C804.122 107.625 803.029 110.129 800.843 112.06C798.676 113.973 795.743 114.929 792.045 114.929C788.366 114.929 785.442 113.973 783.275 112.06C781.107 110.129 780.023 107.625 780.023 104.546H786.717C786.717 105.913 787.118 107.124 787.92 108.18C788.721 109.219 790.096 109.738 792.045 109.738C793.958 109.738 795.324 109.219 796.144 108.18C796.982 107.142 797.401 105.931 797.401 104.546Z" fill="#1F1F21"/>
</svg>
