<svg width="655" height="277" viewBox="0 0 655 277" fill="none" xmlns="http://www.w3.org/2000/svg">
<rect width="654.275" height="276.28" rx="138.14" fill="#F5BF41"/>
<path d="M128.279 160.941V153.509H131.64C133.042 153.509 134.199 153.272 135.11 152.799C136.038 152.325 136.794 151.687 137.377 150.886C137.978 150.066 138.479 149.174 138.88 148.208L139.672 146.214L120 104.219H128.962L143.634 136.569L156.695 104.219H165.547L146.203 150.476C145.383 152.334 144.436 154.055 143.361 155.64C142.305 157.225 140.893 158.509 139.126 159.493C137.359 160.458 135.018 160.941 132.104 160.941H128.279Z" fill="#1F1F21"/>
<path d="M183.642 161.023C179.58 161.023 176.082 160.103 173.15 158.263C170.235 156.405 167.995 153.846 166.428 150.585C164.862 147.325 164.079 143.591 164.079 139.383C164.079 135.121 164.88 131.359 166.483 128.099C168.086 124.82 170.345 122.261 173.259 120.421C176.173 118.581 179.607 117.661 183.56 117.661C186.747 117.661 189.589 118.253 192.084 119.437C194.58 120.603 196.593 122.243 198.123 124.355C199.671 126.468 200.591 128.937 200.882 131.76H192.931C192.494 129.793 191.492 128.099 189.926 126.678C188.378 125.257 186.301 124.547 183.696 124.547C181.419 124.547 179.425 125.148 177.713 126.35C176.019 127.534 174.698 129.228 173.751 131.432C172.804 133.618 172.33 136.204 172.33 139.192C172.33 142.252 172.794 144.893 173.723 147.115C174.652 149.338 175.964 151.059 177.658 152.279C179.37 153.5 181.383 154.11 183.696 154.11C185.245 154.11 186.647 153.828 187.904 153.263C189.179 152.68 190.245 151.851 191.101 150.777C191.975 149.702 192.585 148.409 192.931 146.897H200.882C200.591 149.611 199.707 152.034 198.232 154.165C196.757 156.296 194.78 157.972 192.303 159.192C189.844 160.412 186.957 161.023 183.642 161.023Z" fill="#1F1F21"/>
<path d="M217.624 148.727L236.122 118.208H244.92V160.176H236.914V129.629L218.499 160.176H209.619V118.208H217.624V148.727Z" fill="#1F1F21"/>
<path d="M251.805 172.28V153.099H255.221C256.095 152.298 256.833 151.341 257.434 150.23C258.053 149.119 258.572 147.798 258.991 146.268C259.428 144.738 259.793 142.953 260.084 140.913C260.375 138.855 260.63 136.505 260.849 133.864L262.161 118.208H290.686V153.099H297.134V172.28H289.155V160.176H259.893V172.28H251.805ZM263.964 153.099H282.707V125.203H269.483L268.609 133.864C268.19 138.272 267.662 142.097 267.024 145.339C266.386 148.564 265.366 151.15 263.964 153.099Z" fill="#1F1F21"/>
<path d="M338.808 118.208V160.176H330.83V118.208L338.808 118.208ZM335.338 137.689V144.738C334.081 145.248 332.751 145.704 331.349 146.104C329.946 146.487 328.471 146.788 326.922 147.006C325.374 147.225 323.762 147.334 322.086 147.334C316.895 147.334 312.769 146.068 309.709 143.536C306.649 140.986 305.119 137.088 305.119 131.842V118.126H313.07V131.842C313.07 133.827 313.434 135.439 314.163 136.678C314.891 137.917 315.93 138.827 317.277 139.41C318.625 139.993 320.228 140.285 322.086 140.285C324.545 140.285 326.813 140.057 328.89 139.602C330.984 139.128 333.134 138.49 335.338 137.689Z" fill="#1F1F21"/>
<path d="M357.681 148.727L376.179 118.208H384.977V160.176H376.971V129.629L358.555 160.176H349.675V118.208H357.681V148.727Z" fill="#1F1F21"/>
<path d="M395.96 160.176V118.208H413.365C418.101 118.208 421.853 119.219 424.622 121.241C427.391 123.244 428.775 125.968 428.775 129.41C428.775 131.869 427.992 133.818 426.425 135.257C424.859 136.696 422.782 137.662 420.196 138.154C422.072 138.372 423.793 138.937 425.36 139.848C426.926 140.74 428.183 141.942 429.13 143.454C430.096 144.966 430.578 146.769 430.578 148.864C430.578 151.086 430.005 153.054 428.857 154.766C427.709 156.46 426.043 157.79 423.857 158.755C421.689 159.702 419.075 160.176 416.015 160.176H395.96ZM403.638 153.345H416.015C418.037 153.345 419.622 152.862 420.769 151.897C421.917 150.931 422.491 149.62 422.491 147.962C422.491 146.013 421.917 144.483 420.769 143.372C419.622 142.243 418.037 141.678 416.015 141.678H403.638V153.345ZM403.638 135.694H413.447C414.977 135.694 416.288 135.476 417.381 135.039C418.493 134.602 419.34 133.982 419.922 133.181C420.524 132.361 420.824 131.396 420.824 130.285C420.824 128.663 420.159 127.397 418.83 126.487C417.5 125.576 415.678 125.121 413.365 125.121H403.638V135.694Z" fill="#1F1F21"/>
<path d="M445.688 132.634H457.874C463.01 132.634 466.963 133.909 469.732 136.459C472.501 139.01 473.885 142.297 473.885 146.323C473.885 148.946 473.266 151.305 472.027 153.4C470.788 155.494 468.976 157.152 466.59 158.372C464.204 159.575 461.298 160.176 457.874 160.176H439.54V118.208H447.546V153.126H457.874C460.224 153.126 462.154 152.516 463.666 151.296C465.178 150.057 465.934 148.482 465.934 146.569C465.934 144.547 465.178 142.899 463.666 141.624C462.154 140.33 460.224 139.684 457.874 139.684H445.688V132.634ZM479.841 160.176V118.208H488.011V160.176H479.841Z" fill="#1F1F21"/>
<path d="M506.98 148.727L525.477 118.208H534.275V160.176L526.27 160.176V129.629L507.854 160.176H498.974V118.208L506.98 118.208V148.727ZM521.98 104H528.701C528.701 107.078 527.608 109.583 525.423 111.514C523.255 113.426 520.322 114.383 516.625 114.383C512.945 114.383 510.022 113.426 507.854 111.514C505.686 109.583 504.603 107.078 504.603 104H511.297C511.297 105.366 511.697 106.577 512.499 107.634C513.3 108.672 514.676 109.191 516.625 109.191C518.537 109.191 519.903 108.672 520.723 107.634C521.561 106.596 521.98 105.384 521.98 104Z" fill="#1F1F21"/>
</svg>
