<svg width="894" height="267" viewBox="0 0 894 267" fill="none" xmlns="http://www.w3.org/2000/svg">
<rect width="893.056" height="266.525" rx="133.263" fill="#D4E86D"/>
<path d="M120 161.596V154.274L121.639 154.219C123.862 154.165 125.61 153.409 126.885 151.952C128.179 150.494 129.117 148.145 129.7 144.902C130.301 141.66 130.701 137.334 130.902 131.924L131.858 105.639H167.241V161.596H158.908V112.798H139.809L138.935 134.164C138.698 140.157 138.097 145.194 137.131 149.274C136.166 153.336 134.527 156.405 132.213 158.482C129.918 160.558 126.649 161.596 122.404 161.596H120Z" fill="#1F1F21"/>
<path d="M200.001 137.388V144.492H177.624V137.388H200.001ZM184.263 119.629V161.596H176.094V119.629H184.263ZM212.788 162.443C208.89 162.443 205.484 161.533 202.57 159.711C199.655 157.89 197.396 155.358 195.793 152.115C194.191 148.855 193.389 145.075 193.389 140.777C193.389 136.441 194.191 132.653 195.793 129.41C197.396 126.15 199.655 123.618 202.57 121.814C205.484 119.993 208.89 119.082 212.788 119.082C216.705 119.082 220.111 119.993 223.007 121.814C225.921 123.618 228.18 126.15 229.783 129.41C231.404 132.653 232.215 136.441 232.215 140.777C232.215 145.075 231.404 148.855 229.783 152.115C228.18 155.358 225.921 157.89 223.007 159.711C220.111 161.533 216.705 162.443 212.788 162.443ZM212.788 155.449C215.429 155.449 217.588 154.784 219.264 153.454C220.958 152.106 222.206 150.321 223.007 148.099C223.808 145.877 224.209 143.436 224.209 140.777C224.209 138.099 223.808 135.649 223.007 133.427C222.206 131.186 220.958 129.392 219.264 128.044C217.588 126.696 215.429 126.022 212.788 126.022C210.165 126.022 208.007 126.696 206.313 128.044C204.619 129.392 203.371 131.186 202.57 133.427C201.768 135.649 201.367 138.099 201.367 140.777C201.367 143.436 201.768 145.877 202.57 148.099C203.371 150.321 204.619 152.106 206.313 153.454C208.007 154.784 210.165 155.449 212.788 155.449Z" fill="#1F1F21"/>
<path d="M274.224 104L277.612 109.164C276.355 110.312 274.925 111.131 273.322 111.623C271.737 112.097 269.907 112.397 267.83 112.525C265.754 112.634 263.376 112.734 260.699 112.825C257.675 112.916 255.189 113.572 253.24 114.793C251.291 115.995 249.788 117.78 248.731 120.148C247.693 122.498 247.019 125.448 246.71 129H247.229C248.595 126.396 250.489 124.447 252.912 123.153C255.353 121.86 258.094 121.213 261.136 121.213C264.524 121.213 267.539 121.988 270.18 123.536C272.821 125.084 274.898 127.352 276.409 130.339C277.939 133.308 278.705 136.942 278.705 141.241C278.705 145.594 277.903 149.356 276.3 152.525C274.715 155.695 272.475 158.145 269.579 159.875C266.701 161.587 263.304 162.443 259.387 162.443C255.471 162.443 252.056 161.56 249.141 159.793C246.245 158.008 243.995 155.367 242.393 151.87C240.808 148.372 240.015 144.055 240.015 138.919V134.765C240.015 125.166 241.728 117.944 245.152 113.098C248.577 108.253 253.695 105.767 260.508 105.639C262.712 105.585 264.679 105.576 266.409 105.612C268.14 105.63 269.652 105.548 270.945 105.366C272.256 105.166 273.349 104.71 274.224 104ZM259.415 155.585C261.692 155.585 263.65 155.012 265.289 153.864C266.947 152.698 268.222 151.05 269.114 148.919C270.007 146.788 270.453 144.274 270.453 141.378C270.453 138.536 270.007 136.123 269.114 134.137C268.222 132.152 266.947 130.64 265.289 129.601C263.631 128.545 261.646 128.017 259.333 128.017C257.62 128.017 256.09 128.317 254.742 128.918C253.394 129.501 252.238 130.367 251.272 131.514C250.325 132.662 249.588 134.064 249.059 135.722C248.549 137.361 248.276 139.246 248.24 141.378C248.24 145.713 249.232 149.165 251.218 151.733C253.221 154.301 255.954 155.585 259.415 155.585Z" fill="#1F1F21"/>
<path d="M305.508 162.443C301.574 162.443 298.14 161.542 295.207 159.739C292.275 157.935 289.998 155.412 288.377 152.17C286.756 148.928 285.945 145.139 285.945 140.804C285.945 136.45 286.756 132.643 288.377 129.383C289.998 126.122 292.275 123.59 295.207 121.787C298.14 119.984 301.574 119.082 305.508 119.082C309.443 119.082 312.876 119.984 315.809 121.787C318.742 123.59 321.018 126.122 322.64 129.383C324.261 132.643 325.071 136.45 325.071 140.804C325.071 145.139 324.261 148.928 322.64 152.17C321.018 155.412 318.742 157.935 315.809 159.739C312.876 161.542 309.443 162.443 305.508 162.443ZM305.536 155.585C308.086 155.585 310.199 154.912 311.874 153.564C313.55 152.216 314.789 150.421 315.59 148.181C316.41 145.941 316.82 143.472 316.82 140.777C316.82 138.099 316.41 135.64 315.59 133.399C314.789 131.141 313.55 129.328 311.874 127.962C310.199 126.596 308.086 125.913 305.536 125.913C302.967 125.913 300.836 126.596 299.142 127.962C297.466 129.328 296.218 131.141 295.399 133.399C294.597 135.64 294.197 138.099 294.197 140.777C294.197 143.472 294.597 145.941 295.399 148.181C296.218 150.421 297.466 152.216 299.142 153.564C300.836 154.912 302.967 155.585 305.536 155.585Z" fill="#1F1F21"/>
<path d="M331.704 150.503H340.065C340.174 152.216 340.948 153.536 342.387 154.465C343.844 155.394 345.73 155.859 348.043 155.859C350.393 155.859 352.396 155.358 354.054 154.356C355.712 153.336 356.54 151.76 356.54 149.629C356.54 148.354 356.222 147.243 355.584 146.296C354.965 145.33 354.081 144.583 352.934 144.055C351.804 143.527 350.466 143.263 348.917 143.263H342.087V136.842H348.917C351.231 136.842 352.961 136.314 354.109 135.257C355.256 134.201 355.83 132.88 355.83 131.295C355.83 129.583 355.211 128.208 353.972 127.17C352.752 126.113 351.048 125.585 348.863 125.585C346.64 125.585 344.792 126.086 343.316 127.088C341.841 128.071 341.067 129.346 340.994 130.913H332.742C332.797 128.563 333.507 126.505 334.873 124.738C336.258 122.953 338.116 121.569 340.447 120.585C342.797 119.583 345.466 119.082 348.453 119.082C351.568 119.082 354.263 119.583 356.54 120.585C358.817 121.587 360.575 122.971 361.814 124.738C363.071 126.505 363.699 128.536 363.699 130.831C363.699 133.144 363.007 135.039 361.622 136.514C360.256 137.971 358.471 139.019 356.267 139.656V140.093C357.888 140.203 359.327 140.695 360.584 141.569C361.841 142.443 362.825 143.6 363.535 145.039C364.245 146.478 364.601 148.108 364.601 149.93C364.601 152.498 363.89 154.72 362.469 156.596C361.067 158.473 359.118 159.921 356.622 160.941C354.145 161.943 351.313 162.443 348.125 162.443C345.028 162.443 342.251 161.961 339.791 160.995C337.351 160.012 335.411 158.627 333.972 156.842C332.551 155.057 331.795 152.944 331.704 150.503Z" fill="#1F1F21"/>
<path d="M401.48 137.088V144.165H378.747V137.088H401.48ZM381.042 119.629V161.596H373.036V119.629H381.042ZM407.19 119.629V161.596H399.212V119.629H407.19Z" fill="#1F1F21"/>
<path d="M430.332 162.525C427.673 162.525 425.269 162.034 423.119 161.05C420.97 160.048 419.267 158.6 418.01 156.706C416.771 154.811 416.152 152.489 416.152 149.738C416.152 147.37 416.607 145.421 417.518 143.891C418.429 142.361 419.658 141.15 421.207 140.257C422.755 139.365 424.485 138.691 426.398 138.235C428.311 137.78 430.26 137.434 432.245 137.197C434.759 136.906 436.799 136.669 438.365 136.487C439.932 136.286 441.07 135.968 441.781 135.531C442.491 135.093 442.846 134.383 442.846 133.399V133.208C442.846 130.822 442.172 128.973 440.824 127.662C439.495 126.35 437.509 125.694 434.868 125.694C432.117 125.694 429.95 126.305 428.365 127.525C426.799 128.727 425.715 130.066 425.114 131.541L417.436 129.793C418.347 127.243 419.677 125.184 421.425 123.618C423.192 122.033 425.223 120.885 427.518 120.175C429.813 119.446 432.227 119.082 434.759 119.082C436.435 119.082 438.21 119.283 440.087 119.683C441.981 120.066 443.748 120.776 445.387 121.814C447.045 122.853 448.402 124.337 449.458 126.268C450.515 128.181 451.043 130.667 451.043 133.727V161.596H443.065V155.859H442.737C442.209 156.915 441.416 157.953 440.36 158.973C439.303 159.994 437.946 160.841 436.289 161.515C434.631 162.188 432.646 162.525 430.332 162.525ZM432.108 155.968C434.367 155.968 436.298 155.522 437.901 154.629C439.522 153.737 440.752 152.571 441.589 151.132C442.446 149.675 442.874 148.117 442.874 146.46V141.05C442.582 141.341 442.017 141.614 441.18 141.869C440.36 142.106 439.422 142.316 438.365 142.498C437.309 142.662 436.28 142.817 435.278 142.962C434.276 143.09 433.438 143.199 432.764 143.29C431.179 143.491 429.731 143.828 428.42 144.301C427.127 144.775 426.088 145.458 425.305 146.35C424.54 147.225 424.157 148.39 424.157 149.848C424.157 151.87 424.904 153.4 426.398 154.438C427.892 155.458 429.795 155.968 432.108 155.968Z" fill="#1F1F21"/>
<path d="M456.719 126.678V119.629H492.13V126.678H478.441V161.596H470.463V126.678H456.719Z" fill="#1F1F21"/>
<path d="M516.905 162.443C512.77 162.443 509.209 161.56 506.222 159.793C503.252 158.008 500.957 155.503 499.336 152.279C497.733 149.037 496.932 145.239 496.932 140.886C496.932 136.587 497.733 132.798 499.336 129.52C500.957 126.241 503.216 123.682 506.112 121.842C509.027 120.002 512.433 119.082 516.331 119.082C518.699 119.082 520.994 119.474 523.216 120.257C525.439 121.04 527.433 122.27 529.2 123.946C530.967 125.621 532.36 127.798 533.38 130.476C534.4 133.135 534.91 136.368 534.91 140.175V143.072H501.549V136.951H526.905C526.905 134.802 526.468 132.898 525.593 131.241C524.719 129.565 523.49 128.244 521.905 127.279C520.338 126.314 518.499 125.831 516.386 125.831C514.09 125.831 512.087 126.396 510.375 127.525C508.681 128.636 507.369 130.093 506.44 131.897C505.529 133.682 505.074 135.622 505.074 137.716V142.498C505.074 145.303 505.566 147.689 506.549 149.656C507.551 151.624 508.945 153.126 510.73 154.165C512.515 155.185 514.601 155.695 516.987 155.695C518.535 155.695 519.947 155.476 521.222 155.039C522.497 154.584 523.599 153.91 524.528 153.017C525.457 152.125 526.167 151.023 526.659 149.711L534.391 151.105C533.772 153.381 532.661 155.376 531.058 157.088C529.473 158.782 527.479 160.103 525.074 161.05C522.688 161.979 519.965 162.443 516.905 162.443Z" fill="#1F1F21"/>
<path d="M540.669 161.596L540.641 154.52H542.144C543.31 154.52 544.284 154.274 545.068 153.782C545.869 153.272 546.525 152.416 547.035 151.214C547.545 150.012 547.937 148.354 548.21 146.241C548.483 144.11 548.683 141.432 548.811 138.208L549.549 119.629H578.839V161.596H570.833V126.678H557.117L556.461 140.94C556.297 144.401 555.942 147.425 555.396 150.012C554.867 152.598 554.093 154.757 553.073 156.487C552.053 158.199 550.742 159.484 549.139 160.34C547.536 161.178 545.587 161.596 543.292 161.596H540.669Z" fill="#1F1F21"/>
<path d="M595.881 134.055H608.067C613.204 134.055 617.157 135.33 619.925 137.88C622.694 140.43 624.078 143.718 624.078 147.744C624.078 150.367 623.459 152.726 622.22 154.82C620.982 156.915 619.169 158.573 616.783 159.793C614.397 160.995 611.492 161.596 608.067 161.596H589.734V119.629H597.739V154.547H608.067C610.417 154.547 612.348 153.937 613.86 152.717C615.372 151.478 616.127 149.902 616.127 147.99C616.127 145.968 615.372 144.319 613.86 143.044C612.348 141.751 610.417 141.104 608.067 141.104H595.881V134.055Z" fill="#1F1F21"/>
<path d="M661.681 137.088V144.165H638.949V137.088H661.681ZM641.244 119.629V161.596H633.238V119.629H641.244ZM667.392 119.629V161.596H659.414V119.629H667.392Z" fill="#1F1F21"/>
<path d="M684.469 134.055H696.655C701.791 134.055 705.744 135.33 708.513 137.88C711.281 140.43 712.666 143.718 712.666 147.744C712.666 150.367 712.046 152.726 710.808 154.82C709.569 156.915 707.757 158.573 705.371 159.793C702.984 160.995 700.079 161.596 696.655 161.596H678.321V119.629H686.327V154.547H696.655C699.004 154.547 700.935 153.937 702.447 152.717C703.959 151.478 704.715 149.902 704.715 147.99C704.715 145.968 703.959 144.319 702.447 143.044C700.935 141.751 699.004 141.104 696.655 141.104H684.469V134.055ZM718.622 161.596V119.629H726.792V161.596H718.622Z" fill="#1F1F21"/>
<path d="M745.761 150.148L764.258 119.629H773.056V161.596H765.05V131.05L746.635 161.596H737.755V119.629H745.761V150.148ZM760.761 105.421H767.482C767.482 108.499 766.389 111.004 764.203 112.935C762.036 114.847 759.103 115.803 755.405 115.803C751.726 115.803 748.802 114.847 746.635 112.935C744.467 111.004 743.383 108.499 743.383 105.421H750.078C750.078 106.787 750.478 107.998 751.28 109.055C752.081 110.093 753.456 110.612 755.405 110.612C757.318 110.612 758.684 110.093 759.504 109.055C760.342 108.016 760.761 106.805 760.761 105.421Z" fill="#1F1F21"/>
</svg>
