<svg width="987" height="280" viewBox="0 0 987 280" fill="none" xmlns="http://www.w3.org/2000/svg">
<rect width="986.425" height="279.914" rx="139.957" fill="#E8C9F0"/>
<path d="M169.646 152.717L168.908 173.4H160.492V160.176H156.558V152.717H169.646ZM120 160.176V104.219H128.088V152.853H155.082V104.219H163.197V160.176H120Z" fill="#1F1F21"/>
<path d="M196.34 161.023C192.205 161.023 188.644 160.139 185.657 158.372C182.688 156.587 180.393 154.083 178.771 150.859C177.168 147.616 176.367 143.818 176.367 139.465C176.367 135.166 177.168 131.377 178.771 128.099C180.393 124.82 182.651 122.261 185.547 120.421C188.462 118.581 191.868 117.661 195.766 117.661C198.134 117.661 200.429 118.053 202.651 118.836C204.874 119.62 206.868 120.849 208.635 122.525C210.402 124.201 211.796 126.377 212.816 129.055C213.836 131.714 214.346 134.948 214.346 138.755V141.651H180.984V135.531H206.34C206.34 133.381 205.903 131.478 205.029 129.82C204.154 128.144 202.925 126.824 201.34 125.858C199.773 124.893 197.934 124.41 195.821 124.41C193.526 124.41 191.522 124.975 189.81 126.104C188.116 127.215 186.804 128.672 185.875 130.476C184.965 132.261 184.509 134.201 184.509 136.296V141.077C184.509 143.882 185.001 146.268 185.985 148.236C186.986 150.203 188.38 151.706 190.165 152.744C191.95 153.764 194.036 154.274 196.422 154.274C197.97 154.274 199.382 154.055 200.657 153.618C201.932 153.163 203.034 152.489 203.963 151.596C204.892 150.704 205.602 149.602 206.094 148.29L213.827 149.684C213.207 151.961 212.096 153.955 210.493 155.667C208.908 157.361 206.914 158.682 204.509 159.629C202.123 160.558 199.4 161.023 196.34 161.023Z" fill="#1F1F21"/>
<path d="M220.104 160.176L220.077 153.099H221.579C222.745 153.099 223.72 152.853 224.503 152.361C225.304 151.851 225.96 150.995 226.47 149.793C226.98 148.591 227.372 146.933 227.645 144.82C227.918 142.689 228.119 140.011 228.246 136.787L228.984 118.208H258.274V160.176H250.268V125.257H236.552L235.897 139.52C235.733 142.981 235.377 146.004 234.831 148.591C234.303 151.177 233.529 153.336 232.508 155.066C231.488 156.779 230.177 158.063 228.574 158.919C226.971 159.757 225.022 160.176 222.727 160.176H220.104Z" fill="#1F1F21"/>
<path d="M287.257 161.023C283.122 161.023 279.561 160.139 276.573 158.372C273.604 156.587 271.309 154.083 269.688 150.859C268.085 147.616 267.284 143.818 267.284 139.465C267.284 135.166 268.085 131.377 269.688 128.099C271.309 124.82 273.568 122.261 276.464 120.421C279.378 118.581 282.785 117.661 286.683 117.661C289.051 117.661 291.346 118.053 293.568 118.836C295.79 119.62 297.785 120.849 299.552 122.525C301.319 124.201 302.712 126.377 303.732 129.055C304.752 131.714 305.262 134.948 305.262 138.755V141.651H271.901V135.531H297.257C297.257 133.381 296.82 131.478 295.945 129.82C295.071 128.144 293.841 126.824 292.257 125.858C290.69 124.893 288.85 124.41 286.737 124.41C284.442 124.41 282.439 124.975 280.726 126.104C279.032 127.215 277.721 128.672 276.792 130.476C275.881 132.261 275.426 134.201 275.426 136.296V141.077C275.426 143.882 275.918 146.268 276.901 148.236C277.903 150.203 279.297 151.706 281.082 152.744C282.867 153.764 284.952 154.274 287.339 154.274C288.887 154.274 290.298 154.055 291.574 153.618C292.849 153.163 293.951 152.489 294.88 151.596C295.809 150.704 296.519 149.602 297.011 148.29L304.743 149.684C304.124 151.961 303.013 153.955 301.41 155.667C299.825 157.361 297.83 158.682 295.426 159.629C293.04 160.558 290.317 161.023 287.257 161.023Z" fill="#1F1F21"/>
<path d="M318.288 175.914C317.068 175.914 315.957 175.813 314.955 175.613C313.953 175.431 313.206 175.231 312.715 175.012L314.682 168.318C316.175 168.719 317.505 168.892 318.671 168.837C319.837 168.782 320.866 168.345 321.758 167.526C322.669 166.706 323.471 165.367 324.163 163.509L325.174 160.722L309.818 118.208H318.562L329.19 150.777H329.627L340.256 118.208H349.027L331.731 165.777C330.93 167.963 329.91 169.812 328.671 171.323C327.432 172.853 325.957 174.001 324.245 174.766C322.533 175.531 320.547 175.914 318.288 175.914Z" fill="#1F1F21"/>
<path d="M372.955 161.023C368.893 161.023 365.395 160.103 362.463 158.263C359.548 156.405 357.308 153.846 355.741 150.585C354.175 147.325 353.391 143.591 353.391 139.383C353.391 135.121 354.193 131.359 355.796 128.099C357.399 124.82 359.657 122.261 362.572 120.421C365.486 118.581 368.92 117.661 372.873 117.661C376.06 117.661 378.902 118.253 381.397 119.437C383.893 120.603 385.906 122.243 387.436 124.355C388.984 126.468 389.904 128.937 390.195 131.76H382.244C381.807 129.793 380.805 128.099 379.239 126.678C377.69 125.257 375.614 124.547 373.009 124.547C370.732 124.547 368.738 125.148 367.025 126.35C365.331 127.534 364.011 129.228 363.064 131.432C362.116 133.618 361.643 136.204 361.643 139.192C361.643 142.252 362.107 144.893 363.036 147.115C363.965 149.338 365.277 151.059 366.971 152.279C368.683 153.5 370.696 154.11 373.009 154.11C374.557 154.11 375.96 153.828 377.217 153.263C378.492 152.68 379.558 151.851 380.414 150.777C381.288 149.702 381.898 148.409 382.244 146.897H390.195C389.904 149.611 389.02 152.034 387.545 154.165C386.069 156.296 384.093 157.972 381.616 159.192C379.157 160.412 376.27 161.023 372.955 161.023Z" fill="#1F1F21"/>
<path d="M395.755 125.257V118.208H431.166V125.257H417.477V160.176H409.499V125.257H395.755Z" fill="#1F1F21"/>
<path d="M439.807 175.914V118.208H447.785V125.011H448.468C448.942 124.137 449.625 123.126 450.517 121.978C451.41 120.831 452.648 119.829 454.233 118.973C455.818 118.099 457.913 117.661 460.517 117.661C463.905 117.661 466.929 118.518 469.588 120.23C472.248 121.942 474.333 124.41 475.845 127.634C477.375 130.858 478.14 134.738 478.14 139.274C478.14 143.809 477.385 147.698 475.873 150.941C474.361 154.165 472.284 156.651 469.643 158.4C467.002 160.13 463.987 160.995 460.599 160.995C458.049 160.995 455.963 160.567 454.342 159.711C452.739 158.855 451.483 157.853 450.572 156.706C449.661 155.558 448.96 154.538 448.468 153.646H447.976V175.914H439.807ZM447.812 139.192C447.812 142.143 448.24 144.729 449.096 146.951C449.952 149.174 451.191 150.913 452.812 152.17C454.433 153.409 456.419 154.028 458.769 154.028C461.209 154.028 463.25 153.381 464.889 152.088C466.528 150.777 467.767 149.001 468.605 146.76C469.461 144.52 469.889 141.997 469.889 139.192C469.889 136.423 469.47 133.937 468.632 131.733C467.812 129.529 466.574 127.789 464.916 126.514C463.277 125.239 461.228 124.601 458.769 124.601C456.401 124.601 454.397 125.212 452.758 126.432C451.136 127.652 449.907 129.356 449.069 131.541C448.231 133.727 447.812 136.277 447.812 139.192Z" fill="#1F1F21"/>
<path d="M505.381 161.023C501.246 161.023 497.685 160.139 494.698 158.372C491.729 156.587 489.434 154.083 487.813 150.859C486.21 147.616 485.408 143.818 485.408 139.465C485.408 135.166 486.21 131.377 487.813 128.099C489.434 124.82 491.693 122.261 494.589 120.421C497.503 118.581 500.909 117.661 504.808 117.661C507.176 117.661 509.471 118.053 511.693 118.836C513.915 119.62 515.91 120.849 517.677 122.525C519.443 124.201 520.837 126.377 521.857 129.055C522.877 131.714 523.387 134.948 523.387 138.755V141.651H490.026V135.531H515.382C515.382 133.381 514.944 131.478 514.07 129.82C513.196 128.144 511.966 126.824 510.381 125.858C508.815 124.893 506.975 124.41 504.862 124.41C502.567 124.41 500.563 124.975 498.851 126.104C497.157 127.215 495.846 128.672 494.917 130.476C494.006 132.261 493.551 134.201 493.551 136.296V141.077C493.551 143.882 494.042 146.268 495.026 148.236C496.028 150.203 497.421 151.706 499.206 152.744C500.991 153.764 503.077 154.274 505.463 154.274C507.012 154.274 508.423 154.055 509.698 153.618C510.973 153.163 512.075 152.489 513.004 151.596C513.933 150.704 514.644 149.602 515.136 148.29L522.868 149.684C522.249 151.961 521.137 153.955 519.535 155.667C517.95 157.361 515.955 158.682 513.551 159.629C511.165 160.558 508.441 161.023 505.381 161.023Z" fill="#1F1F21"/>
<path d="M556.004 150.066L569.556 118.208H576.605L559.036 160.176H552.971L535.757 118.208H542.725L556.004 150.066ZM540.457 118.208V160.176H532.451V118.208H540.457ZM571.769 160.176V118.208H579.72V160.176H571.769Z" fill="#1F1F21"/>
<path d="M587.302 160.176L587.275 153.099H588.777C589.943 153.099 590.918 152.853 591.701 152.361C592.502 151.851 593.158 150.995 593.668 149.793C594.178 148.591 594.57 146.933 594.843 144.82C595.116 142.689 595.317 140.011 595.444 136.787L596.182 118.208H625.472V160.176H617.466V125.257H603.75L603.095 139.52C602.931 142.981 602.575 146.004 602.029 148.591C601.501 151.177 600.727 153.336 599.706 155.066C598.686 156.779 597.375 158.063 595.772 158.919C594.169 159.757 592.22 160.176 589.925 160.176H587.302Z" fill="#1F1F21"/>
<path d="M654.455 161.023C650.32 161.023 646.759 160.139 643.771 158.372C640.802 156.587 638.507 154.083 636.886 150.859C635.283 147.616 634.482 143.818 634.482 139.465C634.482 135.166 635.283 131.377 636.886 128.099C638.507 124.82 640.766 122.261 643.662 120.421C646.576 118.581 649.983 117.661 653.881 117.661C656.249 117.661 658.544 118.053 660.766 118.836C662.988 119.62 664.983 120.849 666.75 122.525C668.517 124.201 669.91 126.377 670.93 129.055C671.95 131.714 672.46 134.948 672.46 138.755V141.651H639.099V135.531H664.455C664.455 133.381 664.018 131.478 663.143 129.82C662.269 128.144 661.039 126.824 659.455 125.858C657.888 124.893 656.048 124.41 653.935 124.41C651.64 124.41 649.637 124.975 647.924 126.104C646.23 127.215 644.919 128.672 643.99 130.476C643.079 132.261 642.624 134.201 642.624 136.296V141.077C642.624 143.882 643.116 146.268 644.099 148.236C645.101 150.203 646.495 151.706 648.28 152.744C650.065 153.764 652.15 154.274 654.536 154.274C656.085 154.274 657.497 154.055 658.772 153.618C660.047 153.163 661.149 152.489 662.078 151.596C663.007 150.704 663.717 149.602 664.209 148.29L671.941 149.684C671.322 151.961 670.211 153.955 668.608 155.667C667.023 157.361 665.028 158.682 662.624 159.629C660.238 160.558 657.515 161.023 654.455 161.023Z" fill="#1F1F21"/>
<path d="M709.968 135.667V142.744H687.235V135.667H709.968ZM689.53 118.208V160.176H681.525V118.208H689.53ZM715.678 118.208V160.176H707.7V118.208H715.678Z" fill="#1F1F21"/>
<path d="M755.05 135.667V142.744H732.318V135.667H755.05ZM734.613 118.208V160.176H726.607V118.208H734.613ZM760.761 118.208V160.176H752.782V118.208H760.761Z" fill="#1F1F21"/>
<path d="M777.838 132.634H790.023C795.16 132.634 799.113 133.909 801.882 136.459C804.65 139.01 806.035 142.297 806.035 146.323C806.035 148.946 805.415 151.305 804.177 153.4C802.938 155.494 801.126 157.152 798.739 158.372C796.353 159.575 793.448 160.176 790.023 160.176H771.69V118.208H779.695V153.126H790.023C792.373 153.126 794.304 152.516 795.816 151.296C797.328 150.057 798.084 148.482 798.084 146.569C798.084 144.547 797.328 142.899 795.816 141.624C794.304 140.33 792.373 139.684 790.023 139.684H777.838V132.634ZM811.991 160.176V118.208H820.161V160.176H811.991Z" fill="#1F1F21"/>
<path d="M839.129 148.727L857.627 118.208H866.425V160.176H858.419V129.629L840.004 160.176H831.124V118.208H839.129V148.727ZM854.13 104H860.851C860.851 107.078 859.758 109.583 857.572 111.514C855.405 113.426 852.472 114.383 848.774 114.383C845.095 114.383 842.171 113.426 840.004 111.514C837.836 109.583 836.752 107.078 836.752 104H843.446C843.446 105.366 843.847 106.577 844.649 107.634C845.45 108.672 846.825 109.191 848.774 109.191C850.687 109.191 852.053 108.672 852.873 107.634C853.711 106.596 854.13 105.384 854.13 104Z" fill="#1F1F21"/>
</svg>
