<svg width="841" height="280" viewBox="0 0 841 280" fill="none" xmlns="http://www.w3.org/2000/svg">
<rect width="840.398" height="279.695" rx="139.848" fill="#E8C9F0"/>
<path d="M163.17 104V159.957H154.755V111.213H128.415V159.957H120V104H163.17Z" fill="#1F1F21"/>
<path d="M193.512 160.804C189.377 160.804 185.816 159.921 182.829 158.154C179.86 156.369 177.565 153.864 175.943 150.64C174.341 147.398 173.539 143.6 173.539 139.246C173.539 134.948 174.341 131.159 175.943 127.88C177.565 124.601 179.823 122.042 182.72 120.202C185.634 118.363 189.04 117.443 192.938 117.443C195.306 117.443 197.601 117.834 199.824 118.618C202.046 119.401 204.04 120.63 205.807 122.306C207.574 123.982 208.968 126.159 209.988 128.836C211.008 131.496 211.518 134.729 211.518 138.536V141.432H178.157V135.312H203.512C203.512 133.163 203.075 131.259 202.201 129.601C201.326 127.926 200.097 126.605 198.512 125.64C196.946 124.674 195.106 124.192 192.993 124.192C190.698 124.192 188.694 124.756 186.982 125.886C185.288 126.997 183.976 128.454 183.047 130.257C182.137 132.042 181.681 133.982 181.681 136.077V140.858C181.681 143.664 182.173 146.05 183.157 148.017C184.159 149.984 185.552 151.487 187.337 152.525C189.122 153.545 191.208 154.055 193.594 154.055C195.142 154.055 196.554 153.837 197.829 153.4C199.104 152.944 200.206 152.27 201.135 151.378C202.064 150.485 202.774 149.383 203.266 148.072L210.999 149.465C210.379 151.742 209.268 153.737 207.665 155.449C206.08 157.143 204.086 158.463 201.682 159.411C199.295 160.34 196.572 160.804 193.512 160.804Z" fill="#1F1F21"/>
<path d="M220.582 175.695V117.989H228.56V124.793H229.243C229.717 123.918 230.4 122.907 231.293 121.76C232.185 120.612 233.424 119.61 235.009 118.754C236.593 117.88 238.688 117.443 241.293 117.443C244.681 117.443 247.705 118.299 250.364 120.011C253.023 121.723 255.109 124.192 256.621 127.416C258.151 130.64 258.916 134.52 258.916 139.055C258.916 143.591 258.16 147.48 256.648 150.722C255.136 153.946 253.06 156.432 250.419 158.181C247.777 159.912 244.763 160.777 241.375 160.777C238.825 160.777 236.739 160.349 235.118 159.493C233.515 158.637 232.258 157.635 231.347 156.487C230.436 155.34 229.735 154.32 229.243 153.427H228.752V175.695H220.582ZM228.588 138.973C228.588 141.924 229.016 144.511 229.872 146.733C230.728 148.955 231.967 150.695 233.588 151.952C235.209 153.19 237.194 153.809 239.544 153.809C241.985 153.809 244.025 153.163 245.664 151.87C247.304 150.558 248.542 148.782 249.38 146.542C250.236 144.301 250.664 141.778 250.664 138.973C250.664 136.204 250.246 133.718 249.408 131.514C248.588 129.31 247.349 127.57 245.692 126.295C244.052 125.02 242.003 124.383 239.544 124.383C237.176 124.383 235.172 124.993 233.533 126.213C231.912 127.434 230.682 129.137 229.845 131.323C229.007 133.509 228.588 136.059 228.588 138.973Z" fill="#1F1F21"/>
<path d="M286.129 174.247V104H294.299V174.247H286.129ZM286.129 160.804C283.16 160.804 280.455 160.294 278.015 159.274C275.574 158.236 273.47 156.76 271.703 154.848C269.936 152.935 268.57 150.649 267.605 147.99C266.657 145.33 266.184 142.389 266.184 139.164C266.184 135.904 266.657 132.944 267.605 130.285C268.57 127.625 269.936 125.339 271.703 123.427C273.47 121.514 275.574 120.038 278.015 119C280.455 117.962 283.16 117.443 286.129 117.443H288.151V160.804H286.129ZM286.129 153.919H287.277V124.328H286.129C284.162 124.328 282.45 124.729 280.993 125.53C279.536 126.314 278.324 127.397 277.359 128.782C276.393 130.148 275.665 131.724 275.173 133.509C274.699 135.294 274.463 137.179 274.463 139.164C274.463 141.824 274.891 144.274 275.747 146.514C276.603 148.737 277.896 150.531 279.627 151.897C281.357 153.245 283.525 153.919 286.129 153.919ZM294.299 160.804H292.25V117.443H294.299C297.268 117.443 299.973 117.962 302.414 119C304.855 120.038 306.949 121.514 308.698 123.427C310.465 125.339 311.822 127.625 312.769 130.285C313.735 132.944 314.217 135.904 314.217 139.164C314.217 142.389 313.735 145.33 312.769 147.99C311.822 150.649 310.465 152.935 308.698 154.848C306.949 156.76 304.855 158.236 302.414 159.274C299.973 160.294 297.268 160.804 294.299 160.804ZM294.299 153.919C296.266 153.919 297.978 153.536 299.436 152.771C300.893 151.988 302.104 150.913 303.07 149.547C304.035 148.163 304.755 146.587 305.228 144.82C305.702 143.035 305.939 141.15 305.939 139.164C305.939 136.523 305.51 134.082 304.654 131.842C303.816 129.583 302.532 127.771 300.802 126.405C299.071 125.02 296.904 124.328 294.299 124.328H293.124V153.919H294.299Z" fill="#1F1F21"/>
<path d="M341.383 160.804C337.248 160.804 333.687 159.921 330.7 158.154C327.731 156.369 325.436 153.864 323.814 150.64C322.212 147.398 321.41 143.6 321.41 139.246C321.41 134.948 322.212 131.159 323.814 127.88C325.436 124.601 327.694 122.042 330.591 120.202C333.505 118.363 336.911 117.443 340.809 117.443C343.177 117.443 345.472 117.834 347.695 118.618C349.917 119.401 351.911 120.63 353.678 122.306C355.445 123.982 356.839 126.159 357.859 128.836C358.879 131.496 359.389 134.729 359.389 138.536V141.432H326.028V135.312H351.383C351.383 133.163 350.946 131.259 350.072 129.601C349.197 127.926 347.968 126.605 346.383 125.64C344.817 124.674 342.977 124.192 340.864 124.192C338.569 124.192 336.565 124.756 334.853 125.886C333.159 126.997 331.847 128.454 330.918 130.257C330.008 132.042 329.552 133.982 329.552 136.077V140.858C329.552 143.664 330.044 146.05 331.028 148.017C332.03 149.984 333.423 151.487 335.208 152.525C336.993 153.545 339.079 154.055 341.465 154.055C343.013 154.055 344.425 153.837 345.7 153.4C346.975 152.944 348.077 152.27 349.006 151.378C349.935 150.485 350.645 149.383 351.137 148.072L358.87 149.465C358.25 151.742 357.139 153.737 355.536 155.449C353.952 157.143 351.957 158.463 349.553 159.411C347.166 160.34 344.443 160.804 341.383 160.804Z" fill="#1F1F21"/>
<path d="M368.453 159.957V117.989H376.623V135.585H380.557L394.41 117.989H404.519L388.262 138.399L404.71 159.957H394.574L381.923 143.181H376.623V159.957H368.453Z" fill="#1F1F21"/>
<path d="M445.292 117.989V153.263H451.439V173.482H443.379V159.957H411.056V117.989H419.062V152.908H437.313V117.989H445.292Z" fill="#1F1F21"/>
<path d="M468.502 148.509L487 117.989H495.798V159.957H487.792V129.41L469.377 159.957H460.497V117.989H468.502V148.509Z" fill="#1F1F21"/>
<path d="M524.459 160.804C520.525 160.804 517.091 159.902 514.159 158.099C511.226 156.296 508.949 153.773 507.328 150.531C505.707 147.288 504.896 143.5 504.896 139.164C504.896 134.811 505.707 131.004 507.328 127.744C508.949 124.483 511.226 121.951 514.159 120.148C517.091 118.344 520.525 117.443 524.459 117.443C528.394 117.443 531.828 118.344 534.76 120.148C537.693 121.951 539.97 124.483 541.591 127.744C543.212 131.004 544.023 134.811 544.023 139.164C544.023 143.5 543.212 147.288 541.591 150.531C539.97 153.773 537.693 156.296 534.76 158.099C531.828 159.902 528.394 160.804 524.459 160.804ZM524.487 153.946C527.037 153.946 529.15 153.272 530.826 151.924C532.502 150.576 533.74 148.782 534.542 146.542C535.361 144.301 535.771 141.833 535.771 139.137C535.771 136.459 535.361 134 534.542 131.76C533.74 129.501 532.502 127.689 530.826 126.323C529.15 124.957 527.037 124.274 524.487 124.274C521.918 124.274 519.787 124.957 518.093 126.323C516.417 127.689 515.17 129.501 514.35 131.76C513.549 134 513.148 136.459 513.148 139.137C513.148 141.833 513.549 144.301 514.35 146.542C515.17 148.782 516.417 150.576 518.093 151.924C519.787 153.272 521.918 153.946 524.487 153.946Z" fill="#1F1F21"/>
<path d="M581.585 135.449V142.525H558.852V135.449H581.585ZM561.147 117.989V159.957H553.142V117.989H561.147ZM587.295 117.989V159.957H579.317V117.989H587.295Z" fill="#1F1F21"/>
<path d="M606.23 148.509L624.727 117.989H633.525V159.957H625.52V129.41L607.104 159.957H598.224V117.989H606.23V148.509Z" fill="#1F1F21"/>
<path d="M662.187 160.804C658.125 160.804 654.628 159.884 651.695 158.045C648.78 156.187 646.54 153.627 644.973 150.367C643.407 147.106 642.624 143.372 642.624 139.164C642.624 134.902 643.425 131.141 645.028 127.88C646.631 124.601 648.89 122.042 651.804 120.202C654.719 118.363 658.152 117.443 662.105 117.443C665.293 117.443 668.134 118.035 670.63 119.219C673.125 120.385 675.138 122.024 676.668 124.137C678.216 126.25 679.136 128.718 679.428 131.541H671.477C671.039 129.574 670.038 127.88 668.471 126.459C666.923 125.039 664.846 124.328 662.241 124.328C659.965 124.328 657.97 124.929 656.258 126.131C654.564 127.315 653.243 129.009 652.296 131.214C651.349 133.399 650.875 135.986 650.875 138.973C650.875 142.033 651.34 144.675 652.269 146.897C653.198 149.119 654.509 150.84 656.203 152.061C657.915 153.281 659.928 153.891 662.241 153.891C663.79 153.891 665.192 153.609 666.449 153.044C667.724 152.462 668.79 151.633 669.646 150.558C670.52 149.483 671.13 148.19 671.477 146.678H679.428C679.136 149.392 678.253 151.815 676.777 153.946C675.302 156.077 673.325 157.753 670.848 158.973C668.389 160.194 665.502 160.804 662.187 160.804Z" fill="#1F1F21"/>
<path d="M684.988 125.039V117.989H720.398V125.039H706.709V159.957H698.731V125.039H684.988Z" fill="#1F1F21"/>
</svg>
