<svg width="1439" height="448" viewBox="0 0 1439 448" fill="none" xmlns="http://www.w3.org/2000/svg">
<g clip-path="url(#clip0_593_2382)">
<path d="M1439 40L9.89437e-06 40" stroke="#333438" stroke-linecap="round"/>
<path d="M1439 355L9.89437e-06 355" stroke="#333438" stroke-linecap="round"/>
<path d="M1439 407L9.89437e-06 407" stroke="#333438" stroke-linecap="round"/>
<path d="M1439 198L9.89437e-06 198" stroke="#333438" stroke-linecap="round"/>
<path d="M1439 93L9.89437e-06 93" stroke="#333438" stroke-linecap="round"/>
<path d="M1439 250L9.89437e-06 250" stroke="#333438" stroke-linecap="round"/>
<path d="M1439 145L9.89437e-06 145" stroke="#333438" stroke-linecap="round"/>
<path d="M1439 303L9.89437e-06 303" stroke="#333438" stroke-linecap="round"/>
<path d="M125 1V511" stroke="#333438" stroke-linecap="round"/>
<path d="M73 0V510" stroke="#333438" stroke-linecap="round"/>
<path d="M21 0V510" stroke="#333438" stroke-linecap="round"/>
<path d="M437 1V511" stroke="#333438" stroke-linecap="round"/>
<path d="M281 1V511" stroke="#333438" stroke-linecap="round"/>
<path d="M593 1V511" stroke="#333438" stroke-linecap="round"/>
<path d="M177 1V511" stroke="#333438" stroke-linecap="round"/>
<path d="M489 1V511" stroke="#333438" stroke-linecap="round"/>
<path d="M333 1V511" stroke="#333438" stroke-linecap="round"/>
<path d="M645 1V511" stroke="#333438" stroke-linecap="round"/>
<path d="M229 1V511" stroke="#333438" stroke-linecap="round"/>
<path d="M541 1V511" stroke="#333438" stroke-linecap="round"/>
<path d="M385 1V511" stroke="#333438" stroke-linecap="round"/>
<path d="M697 1V511" stroke="#333438" stroke-linecap="round"/>
<path d="M749 1V511" stroke="#333438" stroke-linecap="round"/>
<path d="M1061 1V511" stroke="#333438" stroke-linecap="round"/>
<path d="M905 1V511" stroke="#333438" stroke-linecap="round"/>
<path d="M1217 1V511" stroke="#333438" stroke-linecap="round"/>
<path d="M801 1V511" stroke="#333438" stroke-linecap="round"/>
<path d="M1113 1V511" stroke="#333438" stroke-linecap="round"/>
<path d="M957 1V511" stroke="#333438" stroke-linecap="round"/>
<path d="M1269 1V511" stroke="#333438" stroke-linecap="round"/>
<path d="M853 1V511" stroke="#333438" stroke-linecap="round"/>
<path d="M1165 1V511" stroke="#333438" stroke-linecap="round"/>
<path d="M1009 1V511" stroke="#333438" stroke-linecap="round"/>
<path d="M1321 1V511" stroke="#333438" stroke-linecap="round"/>
<path d="M1373 0V510" stroke="#333438" stroke-linecap="round"/>
<path d="M1425 1V511" stroke="#333438" stroke-linecap="round"/>
</g>
<defs>
<clipPath id="clip0_593_2382">
<rect width="1439" height="448" fill="white"/>
</clipPath>
</defs>
</svg>
